<svg width="28" height="29" viewBox="0 0 28 29" fill="none" xmlns="http://www.w3.org/2000/svg">
<path d="M14 28.8735C21.732 28.8735 28 22.6055 28 14.8735C28 7.14155 21.732 0.873535 14 0.873535C6.26801 0.873535 0 7.14155 0 14.8735C0 22.6055 6.26801 28.8735 14 28.8735Z" fill="url(#paint0_linear_144_364)"/>
<path fill-rule="evenodd" clip-rule="evenodd" d="M17.9155 7.73724H10.0879C8.33862 7.73724 6.90698 9.16888 6.90698 10.9181V18.8288C6.90698 20.5781 8.33862 22.0097 10.0879 22.0097H17.9155C19.6647 22.0097 21.0964 20.5781 21.0964 18.8288V10.9181C21.0964 9.16888 19.6647 7.73724 17.9155 7.73724ZM19.782 18.0959C19.782 19.5177 18.6142 20.6855 17.1923 20.6855H10.8159C9.38916 20.6855 8.22625 19.5177 8.22625 18.0959V11.6559C8.22625 10.2292 9.38916 9.06627 10.8159 9.06627H17.1923C18.6142 9.06627 19.782 10.2292 19.782 11.6559V18.0959Z" fill="white"/>
<path d="M14.0014 11.353C12.0617 11.353 10.4834 12.9361 10.4834 14.8759C10.4834 16.8157 12.0616 18.3939 14.0014 18.3939C15.9412 18.3939 17.5244 16.8157 17.5244 14.8759C17.5244 12.9361 15.9413 11.353 14.0014 11.353ZM14.0014 17.2066C12.7164 17.2066 11.6707 16.161 11.6707 14.8759C11.6707 13.5909 12.7164 12.5452 14.0014 12.5452C15.2865 12.5452 16.3321 13.5909 16.3321 14.8759C16.3321 16.161 15.2865 17.2066 14.0014 17.2066Z" fill="white"/>
<path fill-rule="evenodd" clip-rule="evenodd" d="M17.5283 11.6936C17.929 11.6936 18.2515 11.3711 18.2515 10.9753C18.2515 10.5746 17.929 10.2521 17.5283 10.2521C17.1326 10.2521 16.8101 10.5746 16.8101 10.9753C16.8101 11.3711 17.1326 11.6936 17.5283 11.6936Z" fill="white"/>
<defs>
<linearGradient id="paint0_linear_144_364" x1="23.2622" y1="-1.73708" x2="4.73778" y2="31.4841" gradientUnits="userSpaceOnUse">
<stop stop-color="#4845A2"/>
<stop offset="0.278" stop-color="#A844A1"/>
<stop offset="0.302" stop-color="#A844A1"/>
<stop offset="0.38" stop-color="#A844A1"/>
<stop offset="0.6" stop-color="#D7233E"/>
<stop offset="0.871" stop-color="#F8A325"/>
<stop offset="1" stop-color="#F8DD25"/>
</linearGradient>
</defs>
</svg>
