<svg width="19" height="19" viewBox="0 0 19 19" fill="none" xmlns="http://www.w3.org/2000/svg">
<path fill-rule="evenodd" clip-rule="evenodd" d="M11.4222 12.606C10.0049 13.6658 8.23875 14.1495 6.47922 13.9596C4.71968 13.7697 3.09737 12.9204 1.93878 11.5826C0.780186 10.2448 0.171323 8.51785 0.234722 6.74924C0.298121 4.98062 1.02908 3.30166 2.28048 2.05026C3.53189 0.798852 5.21085 0.0678964 6.97946 0.00449718C8.74808 -0.058902 10.4751 0.549961 11.8129 1.70855C13.1507 2.86714 14 4.48945 14.1898 6.24899C14.3797 8.00853 13.8961 9.77468 12.8362 11.192L18.0082 16.364C18.1904 16.5526 18.2912 16.8052 18.2889 17.0674C18.2866 17.3296 18.1814 17.5804 17.996 17.7658C17.8106 17.9512 17.5598 18.0564 17.2976 18.0587C17.0354 18.061 16.7828 17.9602 16.5942 17.778L11.4222 12.606ZM12.2302 7C12.2302 8.32608 11.7034 9.59785 10.7658 10.5355C9.82808 11.4732 8.55631 12 7.23022 12C5.90414 12 4.63237 11.4732 3.69469 10.5355C2.75701 9.59785 2.23022 8.32608 2.23022 7C2.23022 5.67392 2.75701 4.40215 3.69469 3.46447C4.63237 2.52678 5.90414 2 7.23022 2C8.55631 2 9.82808 2.52678 10.7658 3.46447C11.7034 4.40215 12.2302 5.67392 12.2302 7Z" fill="#BFBFBF"/>
</svg>
