<svg width="16" height="18" viewBox="0 0 16 18" fill="none" xmlns="http://www.w3.org/2000/svg">
<path d="M6.21425 3.28573H9.78568C9.78568 2.81213 9.59754 2.35793 9.26266 2.02304C8.92777 1.68815 8.47357 1.50002 7.99996 1.50002C7.52636 1.50002 7.07216 1.68815 6.73727 2.02304C6.40239 2.35793 6.21425 2.81213 6.21425 3.28573ZM5.14282 3.28573C5.14282 2.52797 5.44384 1.80124 5.97966 1.26543C6.51548 0.729608 7.2422 0.428589 7.99996 0.428589C8.75773 0.428589 9.48445 0.729608 10.0203 1.26543C10.5561 1.80124 10.8571 2.52797 10.8571 3.28573H15.3214C15.4635 3.28573 15.5997 3.34217 15.7002 3.44264C15.8007 3.5431 15.8571 3.67937 15.8571 3.82145C15.8571 3.96353 15.8007 4.09979 15.7002 4.20025C15.5997 4.30072 15.4635 4.35716 15.3214 4.35716H14.3857L13.5164 14.7879C13.4531 15.5467 13.1071 16.254 12.5467 16.7696C11.9864 17.2852 11.2528 17.5714 10.4914 17.5714H5.50854C4.7471 17.5714 4.01349 17.2852 3.45318 16.7696C2.89287 16.254 2.54678 15.5467 2.48354 14.7879L1.61425 4.35716H0.678537C0.536456 4.35716 0.400195 4.30072 0.299729 4.20025C0.199263 4.09979 0.142822 3.96353 0.142822 3.82145C0.142822 3.67937 0.199263 3.5431 0.299729 3.44264C0.400195 3.34217 0.536456 3.28573 0.678537 3.28573H5.14282ZM6.92854 7.39287C6.92854 7.25079 6.87209 7.11453 6.77163 7.01407C6.67116 6.9136 6.5349 6.85716 6.39282 6.85716C6.25074 6.85716 6.11448 6.9136 6.01402 7.01407C5.91355 7.11453 5.85711 7.25079 5.85711 7.39287V13.4643C5.85711 13.6064 5.91355 13.7426 6.01402 13.8431C6.11448 13.9436 6.25074 14 6.39282 14C6.5349 14 6.67116 13.9436 6.77163 13.8431C6.87209 13.7426 6.92854 13.6064 6.92854 13.4643V7.39287ZM9.60711 6.85716C9.46503 6.85716 9.32877 6.9136 9.2283 7.01407C9.12783 7.11453 9.07139 7.25079 9.07139 7.39287V13.4643C9.07139 13.6064 9.12783 13.7426 9.2283 13.8431C9.32877 13.9436 9.46503 14 9.60711 14C9.74919 14 9.88545 13.9436 9.98592 13.8431C10.0864 13.7426 10.1428 13.6064 10.1428 13.4643V7.39287C10.1428 7.25079 10.0864 7.11453 9.98592 7.01407C9.88545 6.9136 9.74919 6.85716 9.60711 6.85716Z" fill="#808080"/>
</svg>
